<?xml version="1.0" encoding="utf-8" ?>
<svg xmlns="http://www.w3.org/2000/svg" xmlns:xlink="http://www.w3.org/1999/xlink" width="1834" height="917">
	<path fill="white" transform="scale(0.895528 0.895528)" d="M0 0L2046.25 0C2048.75 3.75313 2047.99 9.76244 2047.99 14.1208L2048.02 767.612L2048.01 954.147C2048.01 967.073 2049.66 1011.74 2047.62 1020.8C2047.36 1021.98 2046.85 1022.96 2046.25 1024L0 1024L0 0Z"/>
	<path fill="#B34B00" transform="scale(0.895528 0.895528)" d="M489.19 705.346C491.98 707.547 495.471 710.224 497.227 713.353C498.9 716.334 498.771 720.138 497.865 723.343C497.008 726.371 495.283 728.449 492.514 729.92C484.977 733.924 473.534 732.38 465.732 729.971C464.334 727.947 464.738 727.197 464.899 724.8C470.538 721.784 479.189 725.191 485.456 721.964C487.371 716.916 469.136 709.114 467.431 698.388C466.919 695.166 467.471 691.974 469.46 689.321C472.488 685.283 477.535 683.146 482.436 682.528C486.703 681.991 492.601 682.577 495.879 685.721C498.444 688.181 498.083 690.286 498.364 693.581C495.168 691.115 492.099 688.835 487.843 689.357C486.145 689.565 484.259 690.307 483.139 691.66C481.671 693.436 481.25 695.539 481.717 697.776C482.323 700.681 485.95 703.688 488.486 705.002C488.718 705.122 488.955 705.231 489.19 705.346Z"/>
	<path fill="#B34B00" transform="scale(0.895528 0.895528)" d="M1159.79 593.498C1167.57 593.163 1176.43 592.925 1183.55 596.481C1186.78 598.094 1190.11 600.492 1191.23 604.067C1193.99 612.852 1194.4 704.786 1191.21 710.742Q1217.9 710.889 1244.58 710.386C1245.14 711.361 1245.61 712.39 1245.83 713.502C1246.86 718.853 1247.27 729.887 1244.37 734.505C1243.57 735.002 1243.04 735.162 1242.1 735.229C1231.33 735.992 1188.44 736.545 1179.5 734.799C1174.91 733.903 1170.2 732.031 1166.73 728.809C1162.66 725.028 1161.18 718.427 1160.43 713.167C1158.81 701.756 1159.85 689.107 1159.88 677.567C1159.93 649.639 1160.94 621.391 1159.79 593.498Z"/>
	<path fill="#B34B00" transform="scale(0.895528 0.895528)" d="M547.396 593.016L656.886 593.121C657.138 601.649 655.788 609.577 654.124 617.902L616.113 617.869L615.887 695.5L616.046 735.41C607.09 735.277 597.159 735.944 590.323 729.024C586.985 725.645 585.889 720.69 585.253 716.127C583.641 704.561 584.831 691.767 584.881 680.024L584.738 617.943L545.877 617.933C545.883 609.793 545.339 600.92 547.396 593.016Z"/>
	<path fill="#B34B00" transform="scale(0.895528 0.895528)" d="M1021.2 593.311C1026.87 593.024 1032.42 593.405 1037.96 594.659C1038.46 595.992 1038.5 597.097 1038.18 598.478C1034.53 614.115 1027.75 630.058 1022.46 645.263Q1006.66 690.031 991.816 735.128C984.551 735.414 976.217 736.198 969.443 733.129C965.671 731.42 963.258 728.824 961.151 725.305C955.577 715.992 952.657 704.191 949.176 693.961Q940.74 668.477 931.571 643.248C925.619 626.817 920.588 610.046 914.641 593.596C923.613 593.524 934.132 592.501 942.366 596.751C944.719 597.966 946.227 599.634 947.471 601.948C954.024 614.136 957.646 629.17 962.081 642.311C967.277 657.71 973.067 672.897 977.975 688.392C982.532 670.792 999.039 613.505 1007.53 600.048C1010.57 595.226 1016.06 594.45 1021.2 593.311Z"/>
	<path fill="#B34B00" transform="scale(0.895528 0.895528)" d="M1074.33 593.496C1095.55 592.541 1117.23 593.489 1138.5 593.572C1139.19 594.62 1139.76 595.737 1140.05 596.968C1141.33 602.55 1141.57 613.474 1138.54 618.371C1125.94 618.315 1092.32 616.25 1082.04 619.617C1074.84 626.311 1082.04 642.098 1077.47 650.856C1077.37 651.049 1077.25 651.234 1077.14 651.422Q1101.8 651.364 1126.45 651.556C1127.15 652.607 1127.72 653.73 1128.01 654.965C1129.25 660.453 1129.53 671.45 1126.59 676.273Q1101.89 676.006 1077.19 676.079C1080.38 680.974 1078.64 689.85 1078.44 695.513C1078.22 701.788 1077.88 705.835 1082.3 710.622C1101.46 711.79 1121.01 710.94 1140.22 710.867C1140.83 711.837 1141.34 712.873 1141.58 714.003C1142.69 719.302 1143.07 730.873 1140.2 735.415C1122.13 734.987 1072.24 739.05 1059.26 730.392C1053.79 726.747 1049.23 720.376 1047.96 713.888C1045.74 702.556 1046.31 634.764 1047.53 620.636C1047.92 616.222 1048.33 610.513 1050.89 606.831C1056.87 598.222 1064.47 595.431 1074.33 593.496Z"/>
	<path fill="#B34B00" transform="scale(0.895528 0.895528)" d="M1283.69 593.499C1306.26 591.94 1329.8 593.214 1352.47 593.235C1352.94 593.93 1353.37 594.671 1353.62 595.478C1355.24 600.763 1355.04 613.643 1352.57 618.574C1339.65 618.675 1303.43 615.82 1293.45 620C1284.06 623.932 1291.57 641.608 1287.61 650.132C1287.51 650.34 1287.41 650.544 1287.3 650.749C1303.69 650.539 1320.1 650.721 1336.49 650.729C1337.04 651.547 1337.52 652.403 1337.82 653.348C1339.53 658.731 1339.37 671.097 1336.74 676.07L1286.92 675.999C1291.91 683.411 1286.49 699.652 1290.73 709.502C1301.93 713.268 1338.26 710.891 1351.27 710.867C1351.78 711.652 1352.24 712.478 1352.51 713.38C1354.11 718.594 1353.94 730.648 1351.26 735.349C1334.23 735.382 1282.93 738.614 1269.93 730.405C1264.03 726.678 1259.41 720.46 1257.88 713.624C1255.05 700.979 1255.39 636.268 1256.89 621.424C1257.4 616.368 1258.26 610.254 1261.1 605.956C1266.44 597.891 1274.69 595.267 1283.69 593.499Z"/>
	<path fill="#B34B00" transform="scale(0.895528 0.895528)" d="M874.744 593.479C882.914 593.464 894.731 592.291 901.088 598.567C906.116 603.532 906.216 610.497 906.362 617.083C906.413 637.907 908.826 684.081 904.669 702.019C902.923 709.556 899.519 716.603 894.115 722.203C883.375 733.333 866.916 736.204 852.077 736.421C835.043 736.67 815.946 733.491 803.393 721.049C798.531 716.23 795.33 710.609 793.642 703.983C789.621 688.194 791.256 670.151 791.247 653.905L791.248 593.867C795.802 593.776 800.432 593.589 804.979 593.901C810.516 594.281 816.964 595.868 820.26 600.777C831.16 617.015 813.938 687.628 831.47 706.714C835.203 710.778 840.077 712.598 845.532 712.755C852.351 712.952 862.382 711.245 867.447 706.258C871.189 702.573 873.078 697.538 874.048 692.468C876.279 680.806 875.115 667.618 875.066 655.746L874.744 593.479Z"/>
	<path fill="#B34B00" transform="scale(0.895528 0.895528)" d="M667.251 593.647C687.709 593.641 715.7 591.179 735.186 595.758C747.169 598.573 759.516 604.931 766.027 615.763C771.727 625.247 772.586 638.545 769.946 649.116C766.577 662.603 757.175 670.175 745.792 676.932C759.064 696.194 772.394 715.241 784.978 734.978Q772.145 735.145 759.312 735.006C755.71 734.113 752.136 733.22 749.054 731.063C736.577 722.33 724.89 699.245 716.536 686.076L700.528 686.012L700.356 735.553C691.373 735.41 679.579 735.769 672.642 729.143C669.465 726.108 668.871 721.941 668.366 717.758C666.584 703.012 667.839 686.986 667.847 672.117Q667.806 632.88 667.251 593.647Z"/>
	<path fill="white" transform="scale(0.895528 0.895528)" d="M699.402 617.883C708.361 617.967 721.724 615.461 729.472 620.558C733.299 623.075 735.192 627.317 736.011 631.688C737.669 640.547 735.892 648.932 730.767 656.286C722.499 663.335 709.692 661.473 699.498 661.334L699.402 617.883Z"/>
	<path fill="#B34B00" transform="scale(0.895528 0.895528)" d="M1369.61 593.499C1389.24 591.884 1432.87 591.156 1449.97 598.698C1459.8 603.032 1467.7 610.643 1471.55 620.757C1475.94 632.286 1475.45 646.716 1470.17 657.874C1464.84 669.143 1456.27 675.398 1444.89 679.532C1456.37 688.711 1466.91 703.182 1476.47 714.377C1480.18 718.727 1489.04 727.847 1488.57 733.75C1480.71 734.812 1472.67 734.587 1464.75 734.61L1451.01 734.19C1449.82 729.074 1421.55 690.31 1417.01 686.764L1401.36 686.4C1401.69 687.152 1401.97 687.906 1402.18 688.703C1403.87 695.173 1404.01 730.18 1401.19 735.186C1392.87 735.342 1382.44 736.511 1375.56 730.849C1373 728.738 1371.43 726.367 1370.78 723.091C1368.72 712.689 1369.9 700.558 1369.94 689.968L1370.11 627.116C1370.1 616.349 1370.68 605.176 1369.7 594.458L1369.61 593.499Z"/>
	<path fill="white" transform="scale(0.895528 0.895528)" d="M1401.95 619.498C1408.82 618.46 1417.53 618.287 1424.41 619.397C1429.14 620.162 1433.42 621.622 1436.25 625.703C1439.86 630.905 1440.31 638.104 1439.17 644.157C1438.25 649.062 1436.77 652.628 1432.6 655.5C1432.23 656.505 1432.07 656.786 1431.3 657.511C1424.94 663.554 1409.72 661.678 1401.37 661.596C1404.34 654.403 1403.66 627.765 1401.95 619.498Z"/>
	<path fill="#FFCC79" transform="scale(0.895528 0.895528)" d="M826.467 279.457C839.874 279.147 861.938 286.43 875.458 289.855Q908.281 297.909 940.703 307.452Q973.125 316.995 1005.08 328.007Q1037.03 339.02 1068.45 351.479Q1099.86 363.938 1130.68 377.817C1211.93 413.44 1285.75 457.696 1359.08 507.195C1365.02 511.199 1389.17 525.744 1391.42 531.501C1384.09 533.376 1322.44 531.85 1309.26 531.865C1309.21 531.696 1309.19 531.52 1309.12 531.358C1306.57 525.282 1265.13 492.435 1258.56 487.196C1165.51 412.988 1057.96 357.423 945.894 317.841Q906.961 304.337 867.458 292.605C854.398 288.6 839.687 285.358 827.283 279.827L826.467 279.457Z"/>
	<path fill="#FFCC79" transform="scale(0.895528 0.895528)" d="M855.748 350.845C877.685 352.526 905.111 362.027 926.338 368.295C1037.36 401.079 1146.64 449.346 1235.67 524.711C1238.15 526.807 1240.54 528.17 1240.83 531.502C1229.08 533.116 1215.29 531.783 1203.38 531.776L1124.28 531.974C1124.23 531.79 1124.21 531.597 1124.14 531.421C1122.38 527.032 1101.62 509.694 1097.45 505.986Q1087.79 497.501 1077.89 489.28Q1068 481.06 1057.89 473.111Q1047.78 465.162 1037.46 457.491Q1027.14 449.819 1016.61 442.43Q1006.09 435.041 995.363 427.94Q984.64 420.84 973.729 414.032Q962.817 407.225 951.725 400.716Q940.633 394.207 929.368 388.002Q908.732 376.79 887.6 366.543C877 361.451 865.868 356.815 855.748 350.845Z"/>
	<path fill="#B34B00" transform="scale(0.895528 0.895528)" d="M319.066 218.445C345.297 203.878 373.839 192.858 402.67 184.67Q407.024 183.437 411.406 182.312Q415.789 181.187 420.198 180.17Q424.607 179.154 429.04 178.246Q433.472 177.339 437.926 176.541Q442.38 175.743 446.852 175.055Q451.324 174.368 455.812 173.791Q460.3 173.213 464.801 172.747Q469.301 172.281 473.812 171.926Q478.323 171.571 482.841 171.327Q487.359 171.084 491.882 170.952Q496.405 170.82 500.93 170.799Q505.454 170.779 509.978 170.87Q514.502 170.962 519.022 171.164Q523.542 171.367 528.056 171.682Q532.57 171.996 537.074 172.422Q541.579 172.847 546.072 173.384Q550.565 173.921 555.043 174.568Q559.521 175.215 563.982 175.973Q568.443 176.731 572.884 177.598Q577.324 178.466 581.742 179.442Q586.16 180.419 590.553 181.505Q594.946 182.59 599.31 183.784Q603.674 184.978 608.008 186.278Q612.342 187.579 616.642 188.987Q620.942 190.394 625.207 191.908Q629.471 193.421 633.696 195.039Q637.922 196.657 642.106 198.378Q646.291 200.1 650.431 201.924Q654.572 203.749 658.666 205.675Q662.761 207.601 666.806 209.627Q670.852 211.654 674.846 213.78Q678.84 215.905 682.781 218.129C686.654 215.118 690.09 211.846 693.557 208.393Q693.458 193.835 694.461 179.312C716.598 192.038 739.147 204.075 760.99 217.304Q746.896 222.808 733.046 228.899C730.053 233.621 725.879 239.976 728.478 245.74C731.531 252.513 752.198 268.804 759.063 275.876Q761.202 278.064 763.296 280.295Q765.39 282.525 767.438 284.798Q769.487 287.071 771.489 289.384Q773.491 291.698 775.446 294.052Q777.401 296.405 779.308 298.798Q781.215 301.19 783.074 303.621Q784.932 306.052 786.741 308.519Q788.549 310.987 790.308 313.491Q792.066 315.995 793.774 318.534Q795.482 321.072 797.137 323.645Q798.793 326.218 800.397 328.824Q802 331.43 803.551 334.067Q805.101 336.705 806.598 339.374Q808.095 342.042 809.538 344.74Q810.98 347.438 812.368 350.165Q813.756 352.892 815.088 355.646Q816.421 358.401 817.697 361.181Q818.974 363.962 820.194 366.768Q821.414 369.574 822.577 372.404Q823.74 375.234 824.845 378.087Q825.951 380.939 826.998 383.814Q828.046 386.689 829.035 389.584Q830.025 392.479 830.955 395.394Q831.886 398.309 832.757 401.242Q833.629 404.174 834.441 407.124Q835.253 410.074 836.005 413.04Q836.757 416.006 837.45 418.986Q838.142 421.966 838.773 424.96Q839.405 427.954 839.976 430.96Q840.547 433.966 841.058 436.982Q841.568 439.999 842.017 443.026Q842.466 446.052 842.854 449.087C844.514 462.602 847.518 521.589 839.759 531.545L837.019 531.873L828.888 530.836C827.199 527.918 830.684 514.58 831.117 510.416Q832.396 498.877 832.65 487.27Q832.904 475.663 832.132 464.079C822.913 326.804 719.306 225.513 590.82 191.221C501.486 167.379 401.458 182.275 321.704 228.508C253.851 267.842 199.126 334.123 179.034 410.421Q178.145 413.726 177.338 417.052Q176.532 420.378 175.809 423.723Q175.086 427.068 174.447 430.43Q173.808 433.793 173.253 437.17Q172.698 440.547 172.227 443.937Q171.757 447.327 171.371 450.727Q170.986 454.128 170.685 457.537Q170.385 460.946 170.17 464.362Q169.955 467.777 169.825 471.197Q169.695 474.617 169.651 478.039Q169.607 481.461 169.648 484.884Q169.689 488.306 169.816 491.726Q169.943 495.146 170.155 498.562Q170.367 501.978 170.665 505.387Q170.962 508.796 171.345 512.197Q171.727 515.598 172.195 518.989Q172.662 522.379 173.214 525.756Q173.767 529.134 174.403 532.497Q175.039 535.859 175.759 539.205Q176.479 542.551 177.283 545.878Q178.086 549.205 178.973 552.51Q179.859 555.816 180.828 559.098Q181.796 562.381 182.847 565.638Q183.897 568.895 185.029 572.125Q186.16 575.355 187.372 578.556Q188.584 581.756 189.875 584.926Q191.167 588.095 192.537 591.231Q193.907 594.367 195.356 597.468Q196.804 600.569 198.329 603.633Q199.854 606.696 201.455 609.721Q203.057 612.746 204.733 615.729Q206.41 618.713 208.16 621.654C254.126 700.106 331.673 752.355 418.732 774.972C434.055 778.953 450.246 781.985 466.025 783.518C474.485 784.339 489.072 783.471 496.831 785.867L496.807 794.187C496.596 794.313 496.391 794.448 496.175 794.565C486.557 799.793 419.832 785.255 406.276 781.337C337.256 761.426 275.376 725.652 228.742 670.283C178.661 610.821 152.16 534.956 159.06 456.998Q159.36 453.873 159.726 450.755Q160.092 447.637 160.523 444.527Q160.955 441.417 161.452 438.317Q161.949 435.217 162.511 432.129Q163.073 429.04 163.701 425.964Q164.328 422.887 165.02 419.825Q165.712 416.763 166.469 413.716Q167.225 410.669 168.046 407.638Q168.867 404.608 169.751 401.596Q170.636 398.583 171.583 395.59Q172.531 392.597 173.542 389.625Q174.553 386.653 175.626 383.702Q176.699 380.752 177.834 377.825Q178.969 374.898 180.166 371.995Q181.363 369.092 182.62 366.216Q183.878 363.339 185.196 360.49Q186.514 357.64 187.892 354.819Q189.27 351.998 190.707 349.207Q192.144 346.416 193.64 343.656Q195.136 340.895 196.689 338.167Q198.243 335.439 199.854 332.744Q201.464 330.049 203.132 327.389Q204.799 324.729 206.522 322.104Q208.245 319.48 210.023 316.892Q211.801 314.305 213.633 311.755Q215.465 309.206 217.351 306.696Q219.237 304.186 221.175 301.716Q223.113 299.246 225.103 296.817Q227.093 294.389 229.133 292.003Q231.174 289.617 233.264 287.275Q235.355 284.932 237.494 282.635Q239.634 280.337 241.821 278.085C253.131 266.264 265.523 255.861 278.043 245.372L273.328 230.675Q257.313 223.961 241.139 217.64C263.598 205.82 285.856 193.588 308.155 181.47L307.911 206.235L319.066 218.445Z"/>
	<path fill="#FF7D00" transform="scale(0.895528 0.895528)" d="M298.854 199.801C301.317 202.804 299.835 206.018 301.67 209.335C304.356 214.185 308.552 218.439 311.369 223.521C303.178 227.89 295.111 235.332 286.363 238.199L284.659 236.587C281.545 231.59 279.053 226.667 276.762 221.246C273.588 220.663 269.456 220.335 266.832 218.404C268.67 215.349 293.97 202.831 298.854 199.801Z"/>
	<path fill="#FF7D00" transform="scale(0.895528 0.895528)" d="M701.673 197.384C713.217 203.416 724.426 210.256 735.693 216.795C731.364 219.719 726.597 222.253 722.091 224.916C722.094 228.783 721.804 232.674 721.616 236.538C721.146 238.446 720.622 239.545 719.316 241.019C710.324 234.763 701.354 228.57 692.015 222.835C695.227 219.052 698.253 215.079 701.352 211.201L701.673 197.384Z"/>
	<path fill="#FF7D00" transform="scale(0.895528 0.895528)" d="M496.831 785.867C489.072 783.471 474.485 784.339 466.025 783.518C450.246 781.985 434.055 778.953 418.732 774.972C331.673 752.355 254.126 700.106 208.16 621.654Q206.41 618.713 204.733 615.729Q203.057 612.746 201.455 609.721Q199.854 606.696 198.329 603.633Q196.804 600.569 195.356 597.468Q193.907 594.367 192.537 591.231Q191.167 588.095 189.875 584.926Q188.584 581.756 187.372 578.556Q186.16 575.355 185.029 572.125Q183.897 568.895 182.847 565.638Q181.796 562.381 180.828 559.098Q179.859 555.816 178.973 552.51Q178.086 549.204 177.283 545.878Q176.479 542.551 175.759 539.205Q175.039 535.859 174.403 532.497Q173.767 529.134 173.214 525.756Q172.662 522.379 172.195 518.989Q171.727 515.598 171.345 512.197Q170.962 508.796 170.665 505.387Q170.367 501.977 170.155 498.562Q169.943 495.146 169.816 491.726Q169.689 488.306 169.648 484.884Q169.607 481.461 169.651 478.039Q169.695 474.617 169.825 471.197Q169.955 467.777 170.17 464.362Q170.385 460.946 170.685 457.537Q170.986 454.128 171.371 450.727Q171.757 447.327 172.227 443.937Q172.698 440.547 173.253 437.17Q173.808 433.793 174.447 430.43Q175.086 427.068 175.809 423.723Q176.532 420.378 177.338 417.052Q178.145 413.726 179.034 410.421C199.126 334.123 253.851 267.842 321.704 228.508C401.458 182.275 501.486 167.379 590.82 191.221C719.306 225.513 822.913 326.804 832.132 464.079Q832.904 475.663 832.65 487.27Q832.396 498.877 831.117 510.416C830.684 514.58 827.199 527.918 828.888 530.836L837.019 531.873C827.303 532.315 817.356 531.724 807.597 531.859L798.456 532.098C815.215 483.346 803.601 419.948 782.458 374.427C747.445 299.041 683.219 248.811 606.477 220.783C547.303 201.996 486.956 199.322 426.336 212.432C346.881 233.178 276.042 278.349 233.769 350.318C198.914 409.657 187.946 479.516 205.523 546.348C224.384 618.065 275.918 678.865 339.509 715.753C383.094 741.036 442.02 760.717 492.976 760.91L495.881 761.369C497.261 763.338 497.18 764.85 497.194 767.165C496.74 773.421 496.744 779.599 496.831 785.867Z"/>
	<path fill="#B34B00" transform="scale(0.895528 0.895528)" d="M418.19 208.223C470.97 195.908 524.046 194.415 577.091 206.086C585.734 207.988 597.975 210.107 605.812 214.204C676.485 234.146 743.339 289.119 778.897 352.635C810.904 409.809 820.666 467.719 807.597 531.859L798.456 532.098C815.215 483.346 803.601 419.948 782.458 374.427C747.445 299.041 683.219 248.811 606.477 220.783C547.303 201.996 486.956 199.322 426.336 212.432C346.881 233.178 276.042 278.349 233.769 350.318C198.914 409.657 187.946 479.516 205.523 546.348C224.384 618.065 275.918 678.865 339.509 715.753C383.094 741.036 442.02 760.717 492.976 760.91L495.881 761.369C497.261 763.338 497.18 764.85 497.194 767.165C446.501 767.431 387.257 750.118 343.296 725.53C275.363 687.534 220.058 626.094 198.88 550.176Q198.045 547.103 197.286 544.011Q196.527 540.918 195.843 537.808Q195.16 534.698 194.553 531.572Q193.945 528.446 193.415 525.306Q192.885 522.166 192.431 519.015Q191.978 515.863 191.602 512.701Q191.226 509.539 190.927 506.368Q190.628 503.198 190.408 500.021Q190.187 496.845 190.044 493.664Q189.9 490.482 189.835 487.299Q189.77 484.115 189.783 480.931Q189.796 477.746 189.886 474.563Q189.977 471.38 190.146 468.201Q190.314 465.021 190.561 461.846Q190.807 458.671 191.131 455.503Q191.455 452.335 191.856 449.176Q192.258 446.018 192.736 442.869Q193.215 439.721 193.771 436.586Q194.326 433.45 194.958 430.329Q195.59 427.208 196.299 424.104Q197.007 420.999 197.791 417.913Q198.575 414.827 199.435 411.761Q200.294 408.694 201.228 405.65Q202.163 402.606 203.171 399.585Q204.179 396.565 205.262 393.57Q206.344 390.575 207.499 387.608Q208.654 384.64 209.881 381.702Q211.108 378.764 212.407 375.856Q213.706 372.949 215.076 370.074Q216.445 367.2 217.885 364.359Q219.325 361.519 220.833 358.715Q222.342 355.91 223.919 353.144C266.463 278.221 336.196 230.74 418.19 208.223Z"/>
	<path fill="#FFCC79" transform="scale(0.895528 0.895528)" d="M406.276 781.337C419.832 785.255 486.557 799.793 496.175 794.565C496.391 794.448 496.596 794.313 496.807 794.187C496.879 797.324 496.387 798.491 498.536 800.873C506.542 802.755 532.288 801.053 542.561 801.044L668.298 801.012L1201.07 801.022C1226.65 801.013 1439.32 802.644 1444.62 800.052C1446.21 807.852 1448.38 814.134 1455.33 818.855C1463.9 824.677 1474.89 824.895 1484.13 829.102C1491.65 832.528 1497.44 839.071 1504.38 843.454C1518.48 852.361 1547.06 854.885 1563.24 851.584C1568.98 850.411 1574.82 847.753 1578.05 842.634C1580.91 838.12 1581.45 832.194 1580.22 827.068C1578.82 821.224 1574.71 815.84 1569.54 812.801C1561.32 807.975 1551.36 806.506 1542.74 802.227C1560.35 802.253 1725.09 803.35 1730.67 800.833C1734.82 802.126 1738.99 801.795 1743.28 801.637C1748.61 813.399 1745.43 827.152 1757.55 835.877C1763.35 840.051 1770.14 841.618 1777.17 840.368C1790.5 837.997 1798.12 828.841 1809.55 823.257C1826.02 815.216 1847.04 815.254 1858.8 797.982C1863.59 802.257 1918.32 799.984 1929.35 799.892C1929.84 800.685 1930.26 801.515 1930.51 802.421C1932.09 808.307 1931.42 868.182 1929.17 871.909C1869.87 871.155 1810.52 871.649 1751.22 871.572L1363.52 871.251L116.39 870.043C139.612 861.593 162.306 851.607 185.482 843.001Q243.209 821.862 302.595 805.974Q331.821 798.186 361.291 791.376C369.175 789.575 401.225 784.235 406.276 781.337Z"/>
	<path fill="#B34B00" transform="scale(0.895528 0.895528)" d="M314.759 684.991C276.959 659.453 245.662 615.817 228.113 574.378C202.686 514.334 204.792 447.602 229.256 387.71C256.937 319.944 314.042 266.521 381.132 238.479Q384.672 237.018 388.246 235.643Q391.82 234.268 395.426 232.981Q399.033 231.693 402.669 230.492Q406.306 229.292 409.97 228.18Q413.635 227.068 417.325 226.045Q421.015 225.022 424.729 224.089Q428.443 223.156 432.178 222.312Q435.914 221.469 439.669 220.717Q443.423 219.964 447.195 219.302Q450.967 218.641 454.754 218.071Q458.541 217.501 462.34 217.022Q466.14 216.544 469.949 216.158Q473.759 215.772 477.577 215.478Q481.396 215.184 485.22 214.983Q489.044 214.781 492.872 214.672Q496.7 214.564 500.529 214.547Q504.358 214.531 508.187 214.608Q512.016 214.684 515.841 214.853Q519.667 215.022 523.488 215.284Q527.308 215.546 531.121 215.9Q534.934 216.254 538.738 216.7Q542.541 217.146 546.332 217.684Q550.124 218.222 553.901 218.851Q557.678 219.481 561.439 220.202Q565.2 220.923 568.943 221.734Q572.685 222.546 576.407 223.448Q580.129 224.35 583.827 225.342Q587.526 226.333 591.2 227.414Q594.874 228.495 598.52 229.665Q602.167 230.834 605.784 232.092Q609.401 233.349 612.986 234.694Q616.572 236.038 620.124 237.469C648.952 249.737 674.28 264.66 698.425 284.859C725.826 308.469 759.833 347.263 771.312 381.94C793.583 433.435 795.88 477.931 783.578 532.233L776.739 531.942C738.294 531.947 698.79 530.217 660.442 532.424L654.312 532.43L563.128 533.013C545.857 533.257 528.173 534.456 510.949 533.912C496.181 534.398 485.118 532.392 471.251 527.388C473.671 545.533 477.499 563.694 481.401 581.578C485.564 604.274 490.403 627.248 496.947 649.383L496.716 645.177C498.779 654.855 498.931 663.842 498.58 673.698C496.762 673.448 496.161 672.987 495.033 671.51C491.325 666.658 485.585 633.59 483.807 625.148C473.893 629.766 442.907 640.23 439.272 649.785C437.33 654.891 436.447 660.467 433.306 665.021C425.526 673.302 413.926 673.911 406.516 681.983C396.671 692.709 394.039 708.236 383.284 718.654C417.709 732.233 451.02 741.257 487.956 743.793C490.461 743.965 495.687 743.728 496.877 746.185C497.609 747.696 497.627 749.809 497.782 751.467C487.981 750.062 478.039 749.631 468.209 748.315C436.643 744.089 400.574 736.312 372.773 720.577C362.139 719.275 324.156 692.84 314.759 684.991Z"/>
	<path fill="#FF7D00" transform="scale(0.895528 0.895528)" d="M382.94 580.313C382.861 580.511 382.786 580.711 382.703 580.908C379.635 588.226 360.483 601.09 361.664 605.272C366.543 600.945 379.175 591.483 385.344 589.844C385.938 589.687 386.502 589.515 387.103 589.379C371.867 602.546 345.823 620.476 327.785 629.153L339.236 618.984C354.275 606.653 367.839 592.574 382.94 580.313Z"/>
	<path fill="#FFCC79" transform="scale(0.895528 0.895528)" d="M671.85 362.033L672.404 362.491C670.888 366.647 572.943 453.857 562.056 462.563C559.673 462.089 558.903 460.027 557.511 458.106C555.085 455.055 552.279 452.224 549.654 449.339C564.877 437.374 581.145 426.448 596.909 415.187Q634.212 388.374 671.85 362.033Z"/>
	<path fill="#FFCC79" transform="scale(0.895528 0.895528)" d="M382.94 580.313C388.728 573.758 396.97 567.737 403.562 561.88Q428.809 539.467 454.372 517.415L456.338 518.185C459.093 520.149 465.008 523.436 465.633 526.877C466.08 529.336 465.865 530.553 464.757 532.768C456.465 539.891 394.139 586.635 387.103 589.379C386.502 589.515 385.938 589.687 385.344 589.844C379.175 591.483 366.543 600.945 361.664 605.272C360.483 601.09 379.635 588.226 382.703 580.908C382.786 580.711 382.861 580.511 382.94 580.313Z"/>
	<path fill="#FF7D00" transform="scale(0.895528 0.895528)" d="M523.526 352.068C533.587 357.924 553.914 363.988 560.844 372.438C562.989 375.053 562.589 376.958 562.283 380.028C560.915 384.212 559.731 388.345 561.785 392.534C564.68 398.436 572.723 401.951 578.264 405.048C567.104 411.59 550.009 423.756 537.614 426.747C531.131 402.826 528.73 376.539 523.526 352.068Z"/>
	<path fill="white" transform="scale(0.895528 0.895528)" d="M292.871 657.552C314.687 649.006 336.271 632.404 356.952 620.831C353.047 646.138 343.892 671.723 343.641 697.25Q331.258 689.143 319.183 680.586C310.076 673.186 301.273 665.762 292.871 657.552Z"/>
	<path fill="white" transform="scale(0.895528 0.895528)" d="M506.69 298.093L522.185 380.377C525.064 395.789 527.374 411.682 531.299 426.847L533.94 439.524C515.98 432.652 498.67 430.849 479.969 436.249C478.479 436.799 477.908 436.978 476.299 436.577C475.64 428.649 480.926 412.488 482.759 404.173C488.565 377.83 494.999 351.437 499.782 324.889L500.863 320.227Q503.934 309.201 506.69 298.093Z"/>
	<path fill="white" transform="scale(0.895528 0.895528)" d="M333.363 553.737C337.238 552.881 341.165 551.842 345.106 551.388C354.709 574.978 347.875 579.504 348.944 601.936C345.446 605.083 340.621 608.519 337.833 612.223C325.447 622.947 300.967 643.647 291.477 655.799C272.863 642.659 248.507 601.346 238.003 579.519C269.35 569.747 301.557 561.915 333.363 553.737Z"/>
	<path fill="white" transform="scale(0.895528 0.895528)" d="M492.656 439.208C511.997 438.284 530.927 441.104 545.84 454.6C553.723 461.734 559.068 471.713 559.451 482.448C559.828 493.019 555.105 502.884 547.849 510.38C536.432 522.174 520.147 527.813 503.958 527.959C489.342 528.091 476.151 523.734 463.926 515.857C457.112 510.288 451.726 503.944 448.69 495.576Q448.38 494.732 448.114 493.874Q447.848 493.016 447.625 492.146Q447.403 491.275 447.225 490.394Q447.047 489.513 446.914 488.625Q446.781 487.736 446.694 486.842Q446.606 485.947 446.564 485.05Q446.522 484.152 446.526 483.254Q446.53 482.355 446.579 481.458Q446.628 480.561 446.723 479.667Q446.818 478.773 446.958 477.886Q447.098 476.998 447.283 476.119Q447.469 475.24 447.698 474.371Q447.928 473.502 448.201 472.646Q448.474 471.79 448.791 470.949Q449.107 470.108 449.466 469.284Q449.825 468.461 450.225 467.656C454.945 457.937 465.377 448.029 475.659 444.1C481.144 442.004 487.083 441.09 492.656 439.208Z"/>
	<path fill="#B34B00" transform="scale(0.895528 0.895528)" d="M516.808 515.279C507.812 516.905 496.547 518.315 487.801 514.976C478.944 511.595 467.76 504.185 463.794 495.369C460.687 488.461 461.128 479.996 463.908 473.052C467.565 463.916 475.345 457.596 484.293 453.95Q485.434 453.482 486.598 453.071Q487.761 452.66 488.944 452.308Q490.126 451.956 491.325 451.663Q492.523 451.37 493.735 451.138Q494.947 450.905 496.168 450.733Q497.39 450.561 498.619 450.451Q499.848 450.34 501.081 450.291Q502.314 450.242 503.547 450.254Q504.781 450.266 506.013 450.34Q507.244 450.414 508.471 450.549Q509.697 450.684 510.915 450.881Q512.133 451.077 513.34 451.334Q514.547 451.59 515.739 451.907Q516.932 452.224 518.107 452.599Q519.282 452.975 520.437 453.409Q521.592 453.843 522.724 454.334C531.335 458.123 538.828 464.463 542.256 473.405C545.57 482.046 544.1 490.034 540.481 498.234C533.543 506.68 526.777 511.178 516.808 515.279Z"/>
	<path fill="white" transform="scale(0.895528 0.895528)" d="M494.478 457.148C502.324 456.094 509.988 456.424 517.344 459.55C524.189 462.459 530.202 467.74 532.99 474.742Q533.207 475.281 533.397 475.831Q533.586 476.38 533.748 476.939Q533.91 477.497 534.043 478.063Q534.176 478.629 534.281 479.201Q534.385 479.772 534.461 480.349Q534.536 480.925 534.583 481.505Q534.629 482.084 534.646 482.665Q534.663 483.246 534.65 483.827Q534.638 484.409 534.596 484.988Q534.555 485.568 534.484 486.145Q534.413 486.722 534.313 487.295Q534.213 487.867 534.084 488.434Q533.955 489.001 533.798 489.561Q533.641 490.121 533.456 490.672Q533.271 491.223 533.058 491.763Q532.845 492.304 532.605 492.834C528.508 501.752 520.658 506.173 511.859 509.334C503.916 510.776 495.701 510.333 488.271 507.03C481.394 503.974 475.498 498.388 472.823 491.272Q472.615 490.729 472.435 490.177Q472.255 489.625 472.102 489.064Q471.95 488.503 471.826 487.935Q471.702 487.368 471.607 486.794Q471.511 486.221 471.445 485.644Q471.378 485.067 471.341 484.487Q471.304 483.907 471.295 483.326Q471.287 482.745 471.308 482.164Q471.329 481.584 471.379 481.005Q471.429 480.426 471.508 479.85Q471.587 479.274 471.694 478.703Q471.802 478.133 471.938 477.568Q472.075 477.003 472.239 476.445Q472.404 475.888 472.596 475.34Q472.788 474.791 473.007 474.253Q473.227 473.715 473.473 473.189C477.736 464.263 485.636 460.288 494.478 457.148Z"/>
	<path fill="#FFCC79" transform="scale(0.895528 0.895528)" d="M362.819 618.155C398.73 599.742 433.931 579.943 469.918 561.678C471.851 571.02 473.651 580.416 476.109 589.637C477.094 595.2 477.815 605.905 480.795 610.617L482.128 617.815C467.838 626.391 441.893 632.333 434.038 646.194C431.727 650.272 430.706 655.306 429.537 659.825C422.554 668.388 411.553 668.519 403.82 675.993C392.778 686.664 387.273 703.619 377.964 716.015L351.332 702.533C348.628 682.659 354.929 664.818 359.007 645.566C360.93 636.484 361.972 627.386 362.819 618.155Z"/>
	<path fill="#FF7D00" transform="scale(0.895528 0.895528)" d="M646.607 395.008C647.326 398.509 647.917 402.208 649.041 405.596C653.076 417.758 667.19 420.438 677.234 425.639C689.044 431.755 694.592 442.036 698.432 454.17C696.849 456.213 695.244 458.282 693.821 460.442C685.678 472.803 685.426 483.739 688.233 497.679C678.558 503.457 660.048 506.739 654.435 516.605C651.519 521.727 652.88 527.077 654.312 532.43L563.128 533.013C545.857 533.257 528.173 534.456 510.949 533.912C513.96 533.519 517.032 533.125 519.99 532.423C535.42 528.761 551.069 519.707 559.413 505.883C566.381 494.338 566.776 482.079 563.558 469.316Q605.509 432.639 646.607 395.008Z"/>
	<path fill="white" transform="scale(0.895528 0.895528)" d="M274.093 325.865L280.41 331.782C288.488 336.766 296.002 338.923 305.299 340.447C306.938 342.689 309.013 346.507 311.085 348.202C317.242 358.874 324.644 372.768 321.149 385.424C316.642 401.747 297.691 404.889 308.397 424.784C313.585 434.425 321.961 441.91 328.156 450.837C326.93 455.761 325.471 460.742 324.502 465.717L324.617 466.14C327.75 477.368 336.505 486.084 338.731 497.659C342.202 515.701 334.745 527.15 342.953 545.99C338.73 547.054 334.278 547.904 330.16 549.296C298.544 557.176 267.244 566.609 235.657 574.698C227.55 554.472 221.852 533.935 219.064 512.295C210.318 444.399 232.72 379.299 274.093 325.865Z"/>
	<path fill="#B34B00" transform="scale(0.895528 0.895528)" d="M257.177 470.22C251.858 467.979 246.684 466.048 242.306 462.169L243.034 462.699L240.188 459.054L241.871 458.689L240.32 459.949L241.487 461.29L241.898 458.658C256.015 460.356 272.586 467.933 285.517 473.925C289.794 473.187 295.464 471.474 299.703 472.325L303.486 475.684L303.2 476.86C284.856 485.035 264.841 490.489 245.937 497.372L239.015 487.751C243.138 484.422 251.958 475.552 257.403 475.903C256.606 477.636 256.035 479.262 255.591 481.118L256.975 482.266C262.232 482.683 268.884 479.136 273.789 477.279C268.411 474.627 262.723 472.5 257.177 470.22Z"/>
	<defs>
		<linearGradient id="gradient_0" gradientUnits="userSpaceOnUse" x1="786.12189" y1="516.71442" x2="603.90222" y2="336.92294">
			<stop offset="0" stop-color="#FAE5BC"/>
			<stop offset="1" stop-color="#FDF6E3"/>
		</linearGradient>
	</defs>
	<path fill="url(#gradient_0)" transform="scale(0.895528 0.895528)" d="M667.828 268.893C677.355 275.514 686.335 282.741 695.366 290.012C725.911 317.127 749.597 348.441 766.171 385.942C782.081 425.519 790.794 468.52 781.656 510.948C775.587 509.38 760.581 503.788 755.064 505.904L754.997 508.44C758.406 511.338 775.951 513.831 781.441 515.056C779.937 520.655 778.628 526.467 776.739 531.942C738.294 531.947 698.79 530.217 660.442 532.424C659.565 529.317 658.255 525.618 658.847 522.367C660.527 513.134 677.816 509.656 685.028 506.173C688.361 504.563 691.397 502.257 694.359 500.054C693.338 495.709 692.375 490.972 692.142 486.512C691.495 474.08 696.476 464.923 704.467 455.931C700.509 438.772 692.433 425.603 675.578 418.831C670.537 416.805 664.751 415.043 660.536 411.543C653.435 405.648 653.364 398.562 652.46 390.036C673.194 369.343 694.945 349.69 715.668 328.977C671.557 351.703 628.744 377.663 585.128 401.422C581.455 399.081 577.339 397.353 573.406 395.492Q582.713 382.919 591.706 370.119C599.921 362.36 608.893 347.069 616.021 337.423Q641.746 303.023 667.828 268.893Z"/>
	<path fill="#B34B00" transform="scale(0.895528 0.895528)" d="M753.793 460.874C755.798 461.819 755.771 462.126 756.753 464.013C754.905 468.85 737.359 476.737 732.266 479.937C741.436 480.295 762.504 479.674 770.006 484.608C769.859 487.327 769.847 487.631 768.175 489.755C762.936 491.558 755.981 488.737 750.411 488.795C747.759 488.823 745.216 489.599 743.398 491.632C736.707 499.114 745.818 501.493 747.578 506.581C747.9 507.513 747.818 509.453 747.904 510.489C745.333 510.8 743.603 510.357 741.191 509.479C734.15 506.917 706.693 493.744 703.757 487.481L705.851 485.448C704.726 483.36 703.768 481.693 703.678 479.253C707.113 476.872 714.721 478.683 718.974 479.129C730.707 473.248 742.371 467.345 753.793 460.874Z"/>
	<path fill="white" transform="scale(0.895528 0.895528)" d="M717.811 488.416C724.874 487.575 732.12 487.903 739.226 487.972C736.893 491.592 734.955 494.39 734.802 498.79L734.855 499.147L734.209 499.82C728.473 497.541 722.429 493.569 717.684 489.652L717.811 488.416Z"/>
	<path fill="#FFCC79" transform="scale(0.895528 0.895528)" d="M310.565 322.034C317.424 311.806 331.354 309.282 342.761 307.017C351.501 305.281 366.741 302.062 374.473 307.703C383.179 314.055 377.926 334.691 404.743 331.064C413.008 329.946 439.138 316.487 443.136 317.97C449.917 323.168 449.82 333.158 454.017 340.205C461.578 348.113 469.1 351.82 480.13 352.082Q483.821 352.158 487.513 352.116Q480.409 380.807 474.308 409.728C472.032 420.033 468.891 430.749 467.476 441.173C454.612 450.161 442.749 460.963 439.997 477.312C438.101 488.58 441.588 499.97 448.22 509.125Q449.252 510.544 450.376 511.89C418.287 539.862 386.881 568.688 354.548 596.359C355.624 586.723 358.119 576.483 356.902 566.8C355.278 553.885 345.959 542.584 344.44 529.248C343.105 517.521 347.344 506.821 344.183 494.876C341.35 484.172 333.849 475.62 330.906 465.143C333.047 457.049 334.949 451.196 330.398 443.442C325.456 435.022 308.781 423.5 311.287 412.472C312.108 408.855 315.17 405.475 317.44 402.643C332.415 383.956 331.161 372.568 319.695 351.911C318.744 350.198 317.757 348.219 316.496 346.719C310.848 335.26 308.154 335.786 310.565 322.034Z"/>
	<path fill="white" transform="scale(0.895528 0.895528)" d="M276.478 323.3C283.823 315.284 291.149 307.234 298.931 299.636C351.614 248.197 428.877 219.423 502.33 220.342C511.179 220.378 520.303 220.552 529.11 221.506C557.754 224.52 585.764 230.288 612.589 240.991C630.256 247.961 646.858 255.773 662.892 266.064C637.509 299.064 611.813 332.063 587.861 366.124C584.468 370.663 571.882 389.523 567.946 391.252L567.101 390.903C564.559 384.446 569.586 378.951 567.524 372.601C564.411 363.018 532.427 350.756 522.464 345.931C518.156 321.519 514.744 295.178 506.961 271.649C502.629 286.222 499.12 301.076 495.68 315.879C493.468 325.394 491.759 335.521 488.217 344.623C485.958 346.653 483.818 347.122 480.85 346.94Q480.071 346.888 479.296 346.798Q478.52 346.709 477.75 346.583Q476.98 346.458 476.216 346.296Q475.452 346.134 474.697 345.936Q473.942 345.738 473.197 345.505Q472.453 345.272 471.719 345.003Q470.986 344.735 470.267 344.433Q469.547 344.13 468.843 343.794Q468.138 343.458 467.451 343.089Q466.763 342.72 466.093 342.319Q465.424 341.917 464.774 341.485Q464.124 341.053 463.495 340.59Q462.866 340.128 462.26 339.636Q461.654 339.144 461.071 338.625Q460.489 338.105 459.932 337.558Q459.375 337.011 458.844 336.439C455.857 328.533 453.722 318.896 446.932 313.335C436.892 305.112 420.16 323.668 405.318 325.131C380.718 327.556 389.689 312.657 377.574 302.99C371.109 297.833 358.816 299.324 351.054 300.362C338.275 302.072 316.912 304.873 308.58 315.72C304.472 322.231 303.972 328.141 303.414 335.6C296.229 333.98 289.719 332.072 283.249 328.399L276.478 323.3Z"/>
	<path fill="#B34B00" transform="scale(0.895528 0.895528)" d="M501.67 220.966C507.676 234.615 513.861 248.223 519.26 262.125C519.051 250.87 519.787 239.864 524.971 229.595C527.406 229.981 529.419 230.71 531.67 231.65C532.722 239.244 528.283 255.863 526.941 264.377C530.785 260.664 534.447 256.473 539.642 254.761L540.123 255.37L539.798 256.609L541.379 256.546L540.071 255.939C537.491 264.154 529.192 272.753 523.857 279.511Q513.717 262.841 502.961 246.562C499.08 254.858 496.607 263.595 493.98 272.342C490.072 272.246 482.394 273.014 479.188 271.031C480.331 266.691 485.092 264.695 486.406 260.862C487.421 257.902 487.662 253.864 488.471 250.702C490.712 241.948 495.796 227.877 501.67 220.966Z"/>
	<path fill="#B34B00" transform="scale(0.895528 0.895528)" d="M1553.95 543.205C1553.02 547.041 1548.83 550.666 1545.71 552.833C1532.78 561.79 1510.38 560.838 1495.61 557.892C1464.77 551.742 1430.82 529.243 1413.45 502.992C1397.77 479.292 1398.08 452.149 1403.72 425.216C1419.67 348.906 1480.78 240.674 1546.62 197.708C1571.72 181.332 1598.18 174.075 1627.86 180.405C1655.28 186.255 1680.56 200.542 1695.86 224.598C1698.23 228.316 1701.28 234.463 1700.27 238.9C1708.42 238.109 1716.49 237.705 1724.67 237.493C1734.28 232.446 1739.62 221.657 1750.5 217.077C1766.82 210.211 1788.56 215.452 1804.23 221.999C1816.14 226.975 1827.06 233.434 1832.05 246.034C1834.23 251.531 1836.41 263.845 1834.06 269.249C1845.22 274.553 1856.98 286.82 1865.25 295.805C1868.65 299.505 1876.17 306.755 1875.95 311.902C1867.48 308.843 1825.44 300.939 1817.2 301.512C1811.06 308.742 1816.06 322.259 1812.67 331.262C1809.63 339.316 1804.57 336.462 1801.11 340.783C1795.58 347.673 1795.69 356.938 1785.95 360.977C1774.47 365.736 1759.7 354.514 1749.41 350.178C1747.05 354.452 1738.66 358.074 1734.32 359.964C1734.49 360.397 1734.8 361.076 1734.89 361.571C1736.3 368.856 1728.52 413.432 1724.48 418.62C1729.24 418.654 1733.98 418.665 1738.71 418.042C1747.53 416.876 1761.63 413.67 1767.21 406.393C1771.26 401.845 1771.52 395.022 1775.18 390.063C1780.55 382.784 1792.8 372.966 1801.85 371.763C1804.94 371.352 1808.08 371.912 1810.52 373.945C1813.58 376.497 1813.22 378.84 1813.75 382.421C1814.36 386.438 1818.65 387.038 1821.39 389.32C1824.4 391.835 1824.91 395.5 1825.28 399.191C1826.17 408.224 1825.33 424.053 1819.3 431.144C1814.76 436.478 1806.05 436.543 1799.6 437.097C1801.01 445.196 1795.66 472.575 1793.3 481.239C1797.58 483.302 1800.99 486.458 1802.74 490.924C1806.17 499.668 1804.17 511.011 1800.49 519.355C1796.93 527.413 1792.5 532.166 1784.32 535.373C1785.34 547.75 1777.77 581.063 1775.46 595.09Q1769.22 634.057 1763.76 673.14C1762.37 682.542 1758.94 694.146 1759.73 703.525C1760.56 713.244 1765.74 723.781 1769 732.969C1768.7 733.798 1768.4 734.625 1768.15 735.477C1767.27 738.569 1768.07 740.662 1769.63 743.331C1782.66 765.643 1806.96 767.336 1829.3 759.164C1840.81 754.953 1854.35 743.88 1867.2 747.54C1872.54 749.06 1876.43 753.044 1878.98 757.858C1881.72 763.057 1882.33 768.647 1880.43 774.243C1877.73 782.203 1866.18 794.277 1858.8 797.982C1847.04 815.254 1826.02 815.216 1809.55 823.257C1798.12 828.841 1790.5 837.997 1777.17 840.368C1770.14 841.618 1763.35 840.051 1757.55 835.877C1745.43 827.152 1748.61 813.399 1743.28 801.637C1738.99 801.795 1734.82 802.126 1730.67 800.833C1725.09 803.35 1560.35 802.253 1542.74 802.227C1551.36 806.506 1561.32 807.975 1569.54 812.801C1574.71 815.84 1578.82 821.224 1580.22 827.068C1581.45 832.194 1580.91 838.12 1578.05 842.634C1574.82 847.753 1568.98 850.411 1563.24 851.584C1547.06 854.885 1518.48 852.361 1504.38 843.454C1497.44 839.071 1491.65 832.528 1484.13 829.102C1474.89 824.895 1463.9 824.677 1455.33 818.855C1448.38 814.134 1446.21 807.852 1444.62 800.052C1447.28 797.229 1448.55 792.091 1450.32 788.519C1458.04 772.966 1465.4 770.383 1478.44 760.457C1485.47 755.106 1501.14 739.184 1502.26 730.772C1501.63 726.87 1496.75 722.42 1494.2 719.387C1500.75 713.438 1545.51 662.128 1546.75 657.185C1547.21 656.406 1547.68 655.557 1547.94 654.686C1550.32 646.628 1550.03 636.269 1551.27 627.74C1553.93 609.37 1560.26 588.92 1559.99 570.482C1559.88 563.135 1557.42 549.48 1553.95 543.205Z"/>
	<path fill="white" transform="scale(0.895528 0.895528)" d="M1808.4 419.5C1810.92 419.398 1811.29 419.115 1813.21 420.668C1812.72 422.339 1812.72 422.695 1811.32 423.86C1807.74 426.844 1804.82 426.958 1800.32 426.525C1798.77 425.344 1798.31 424.672 1797.73 422.822C1800.18 420.283 1804.92 420.042 1808.4 419.5Z"/>
	<path fill="white" transform="scale(0.895528 0.895528)" d="M1808.6 407.499C1809.85 407.22 1811.15 406.868 1812.43 407.032C1814.07 407.242 1814.18 407.428 1815.2 408.722L1814.6 410.91C1809.93 415.568 1807.32 416.198 1800.74 416.328C1799.05 416.12 1797.8 415.189 1796.38 414.304L1796.71 412.626C1799.87 409.88 1804.7 408.941 1808.6 407.499Z"/>
	<path fill="white" transform="scale(0.895528 0.895528)" d="M1805.44 396.499L1806.04 396.409C1808.92 396.002 1811.49 395.61 1813.93 397.443L1814.01 399.337C1810.61 403.665 1807.53 404.618 1802.21 405.531C1799.89 406.058 1798.97 406.571 1796.64 405.591L1796.16 403.509C1797.99 399.915 1801.95 398.388 1805.44 396.499Z"/>
	<path fill="#FF7D00" transform="scale(0.895528 0.895528)" d="M1671.4 324.499C1678.19 323.864 1684.71 325.586 1690.27 329.632C1695.75 333.625 1699.5 339.429 1700.52 346.122C1700.42 345.871 1700.33 345.616 1700.22 345.37C1698.77 342.154 1695.33 340.401 1692.27 339.109C1692.03 338.852 1691.73 338.507 1691.44 338.277C1681.9 330.627 1667.63 331.618 1656.27 332.186C1661.52 330.252 1666.34 326.946 1671.4 324.499Z"/>
	<path fill="white" transform="scale(0.895528 0.895528)" d="M1519.6 237.473C1522.27 237.404 1524.99 237.873 1527.65 238.185C1526.15 247.075 1494.11 269.461 1492.55 284.48C1491.73 292.368 1500.08 297.519 1499.53 304.155C1492.21 297.601 1487.28 290.067 1480.64 283.077C1485.88 279.505 1495.27 264.711 1500.22 258.84C1506.42 251.48 1512.99 244.471 1519.6 237.473Z"/>
	<path fill="white" transform="scale(0.895528 0.895528)" d="M1515.1 737.499C1515.71 737.551 1516.19 737.605 1516.76 737.82C1520.17 739.109 1526.34 743.86 1528.04 747.133C1527.91 747.907 1513.9 766.304 1511.42 770.767C1509.84 772.287 1506.34 772.953 1504.24 773.651C1502.19 774.912 1500.85 775.669 1498.4 775.633C1495.07 773.084 1495.39 768.051 1492.58 764.713C1492.45 764.555 1492.31 764.405 1492.17 764.252C1500.1 760.012 1510.52 745.22 1515.1 737.499Z"/>
	<path fill="#FF7D00" transform="scale(0.895528 0.895528)" d="M1687.38 316.499C1691.55 315.989 1695.83 316.034 1700.02 315.912C1701.48 316.768 1702.91 317.777 1704.1 318.994C1716.1 331.305 1723.74 351.243 1723.16 368.461C1722.9 376.164 1720.09 388.003 1714.16 393.504L1713.96 393.87L1713.52 393.729C1715.04 382.331 1716.41 371.704 1714.62 360.219C1712.94 349.389 1708.49 335.011 1700.09 327.546C1695.73 323.668 1690.44 321.011 1685.74 317.584L1687.38 316.499Z"/>
	<path fill="#FF7D00" transform="scale(0.895528 0.895528)" d="M1648.32 456.499C1650.36 458.22 1650.53 458.109 1650.77 460.734C1644.04 470.72 1584.11 494.874 1570.36 498.099C1570.31 498.056 1570.25 498.027 1570.22 497.971C1568.91 495.326 1573.28 488.555 1573.57 485.038C1594.92 480.92 1630.41 468.938 1648.32 456.499Z"/>
	<path fill="white" transform="scale(0.895528 0.895528)" d="M1698.28 267.499C1702.2 267.531 1707.35 268.709 1710.88 270.352C1713.74 276.434 1712.86 291.611 1711.87 298.382C1711.87 298.691 1711.92 299.003 1711.87 299.309C1711.54 301.51 1709.91 303.617 1708.38 305.123C1704.79 306.769 1702.02 306.163 1698.24 305.51C1693.02 304.695 1687.45 305.517 1682.2 305.905C1690.16 299.264 1696.62 277.431 1698.28 267.499Z"/>
	<path fill="white" transform="scale(0.895528 0.895528)" d="M1754.56 743.5C1758.49 744.823 1766.83 759.198 1770.17 762.953C1772.74 765.841 1776.4 768.253 1779.42 770.658L1779.59 774.162C1778.86 775.987 1778.1 777.209 1776.56 778.424C1772.7 781.474 1770.02 782.012 1765.23 781.372L1756.49 778.222C1753.01 768.95 1746.44 754.681 1738.43 748.678C1743.96 747.548 1749.26 745.412 1754.56 743.5Z"/>
	<path fill="white" transform="scale(0.895528 0.895528)" d="M1527.67 227.777C1535.84 223.97 1542.85 216.58 1549.98 211.074C1555.81 206.574 1562.44 202.64 1569 199.305C1590.2 188.536 1612.61 188.228 1634.97 195.616C1643.47 198.424 1671.99 209.985 1675.93 217.828C1675.75 217.754 1675.58 217.683 1675.4 217.608C1668.38 214.607 1662.04 209.921 1655.11 206.65C1632.17 195.83 1604.67 192.221 1580.75 201.547C1568.1 206.477 1554.03 214.902 1544.94 225.079L1544.53 226.706C1545.72 227.535 1547.53 228.382 1547.95 229.759C1542.33 227.745 1533.69 228.184 1527.67 227.777Z"/>
	<path fill="white" transform="scale(0.895528 0.895528)" d="M1476.06 296.704C1476.43 296.91 1476.84 297.118 1477.17 297.379C1479.42 299.118 1480.42 301.147 1480.89 303.845C1480.5 308.003 1461.57 337.568 1458.03 344.192Q1444.49 369.745 1433.71 396.577C1429.89 406.122 1423.86 429.535 1418.71 436.577L1416.04 437.939C1418.31 435.213 1427.67 392.279 1430.61 384.49C1438.31 364.177 1448.05 344.241 1458.88 325.429C1464.44 315.779 1470.89 306.552 1476.06 296.704Z"/>
	<path fill="white" transform="scale(0.895528 0.895528)" d="M1779.15 439.499L1781.1 440.007C1781.19 440.415 1781.38 441.161 1781.41 441.622C1781.8 447 1776.93 478.009 1774.05 481.798C1769.64 483.023 1764.83 483.438 1760.3 484.129C1756.05 480.581 1747.98 477.707 1742.76 475.495C1740.74 472.077 1733.23 469.429 1729.62 468.056C1743.04 464.227 1767.61 447.912 1779.15 439.499Z"/>
	<path fill="white" transform="scale(0.895528 0.895528)" d="M1798.82 381.498L1801.81 381.505L1802.75 382.562C1798.01 387.416 1791.69 392.458 1788.05 398.152C1782.58 406.698 1788.79 417.585 1784.81 425.147C1782.57 427.939 1724.44 459.112 1719.12 460.184C1718.27 459.384 1716.75 458.279 1716.11 457.353C1713.81 454.024 1724.84 435.614 1722.82 428.725Q1727.6 428.798 1732.37 428.553C1746.57 427.867 1770.16 423.341 1777.8 409.925C1780.62 404.983 1780.99 398.623 1784.34 393.97C1787.94 388.969 1794.61 386.15 1798.82 381.498Z"/>
	<path fill="#FF7D00" transform="scale(0.895528 0.895528)" d="M1760.25 222.499C1771.57 220.216 1784.72 223.165 1795.51 226.813C1806.6 230.561 1818.08 235.949 1823.41 247.048C1825.96 252.36 1827.64 261.999 1825.72 267.668C1819.98 264.727 1811.52 263.688 1805.21 262.388C1797.13 259.265 1787.78 257.506 1779.4 255.101C1764.09 250.705 1749.4 245.709 1734.7 239.566C1743.91 235.08 1745.73 225.839 1760.25 222.499Z"/>
	<path fill="#FF7D00" transform="scale(0.895528 0.895528)" d="M1706.25 246.498C1706.42 246.454 1706.59 246.406 1706.75 246.365C1712.79 244.874 1721.83 244.742 1727.88 245.984C1742.79 249.045 1757.74 257.439 1772.59 261.747C1788.87 266.472 1821.6 271.622 1834.66 279.863C1840.5 283.55 1853.4 292.97 1854.86 299.766C1850.09 295.47 1841.32 294.372 1835.2 292.991C1824.04 287.747 1791.74 281.723 1778.16 278.573Q1739.7 269.704 1701.71 259.023C1697.85 257.947 1687.06 256.22 1684.77 253.373L1686.02 251.722C1691.85 248.741 1699.75 247.195 1706.25 246.498Z"/>
	<path fill="#FF7D00" transform="scale(0.895528 0.895528)" d="M1857.94 759.499C1860.07 759.036 1861.67 758.937 1863.83 759.263L1865.08 761.018C1864.91 763.173 1863.96 764.721 1862.72 766.415C1855.58 776.151 1843.17 788.361 1832.71 794.387C1824.56 799.081 1777.8 814.326 1768.16 815.711C1764.14 816.289 1762.34 815.194 1759.24 812.827C1760.05 808.639 1755.69 789.256 1754.08 784.672C1760.81 786.941 1763.14 790.991 1771.21 790.744C1778.95 790.508 1781.56 785.719 1786.47 780.617C1792.93 773.905 1808.16 776.102 1816.76 775.991C1831.19 775.806 1847.7 770.04 1857.94 759.499Z"/>
	<path fill="#FF7D00" transform="scale(0.895528 0.895528)" d="M1483.16 767.498C1483.44 767.575 1485.26 767.975 1485.35 768.092C1487.07 770.292 1486.23 776.168 1491.29 781.524C1493.4 783.754 1495.71 785.661 1498.98 785.57C1502.45 785.474 1509.34 780.882 1511.64 778.371C1520.9 785.912 1523.22 803.526 1535.71 812.688C1544.38 819.048 1554.7 819.628 1563.51 824.942C1565.86 826.357 1567.44 827.785 1568.14 830.547C1567.1 832.809 1566.7 832.654 1564.35 833.599Q1562.87 833.977 1561.36 834.253C1542.92 837.636 1523.73 835.363 1508.81 823.56C1504.14 819.866 1500.3 815.19 1495.31 811.907L1494.65 811.479C1491.16 809.691 1486.41 810.429 1482.73 808.588C1475.07 804.766 1477.76 781.927 1475.03 774.255C1474.94 774.012 1474.85 773.771 1474.76 773.529C1477.99 772.218 1480.99 770.238 1483.16 767.498Z"/>
	<path fill="white" transform="scale(0.895528 0.895528)" d="M1654.57 473.5C1655.53 473.822 1656.24 474.436 1657.05 475.028C1658.31 477.424 1659.24 479.285 1659.44 482.052C1663 483.597 1669.12 485.915 1671.45 489.007C1671.76 495.306 1670.7 530.885 1668.47 535.234C1666.62 534.204 1663.88 533.963 1661.79 533.483C1648.2 530.364 1635.39 525.29 1622.15 521.043C1618.45 517.461 1594.65 505.623 1588.67 502.929C1603.48 500.728 1642.59 483.49 1654.57 473.5Z"/>
	<path fill="#FF7D00" transform="scale(0.895528 0.895528)" d="M1410.86 460.773C1418.52 464.305 1425.01 472.005 1432.14 476.815C1454.19 491.693 1479.17 499.8 1505.01 505.081L1507.29 506.607C1507.02 511.43 1497.54 539.163 1494.96 541.613C1494.86 541.713 1494.74 541.804 1494.63 541.899C1487.55 539.286 1480.13 537.149 1473.32 533.881C1454.04 524.63 1431.33 507.172 1421.55 487.694C1417.37 479.369 1416.38 469.23 1411.37 461.536C1411.2 461.279 1411.03 461.027 1410.86 460.773Z"/>
	<path fill="white" transform="scale(0.895528 0.895528)" d="M1763.13 285.499C1776.42 285.052 1794.92 290.93 1807.81 294.757C1808.13 297.89 1804.8 302.287 1804.18 305.621C1802.79 313.13 1806.39 321.54 1802.71 328.729C1800.09 330.722 1795.86 330.933 1792.65 331.464C1792.2 335.777 1790.11 342.169 1788.11 346.021C1786.82 348.513 1784.66 350.676 1781.88 351.379C1771.83 353.921 1758 341.546 1749.66 336.824C1749.4 336.767 1735.98 347.748 1730.89 349.694C1728.01 339.279 1723.13 322.946 1713.79 316.62C1723.26 313.157 1735.2 302.709 1740.89 294.567C1743.26 296.205 1744.34 300.817 1746.34 303.291C1748.85 303.952 1749.08 303.584 1751.47 302.46C1753.23 298.843 1751.83 295.949 1752.19 292.021L1753.9 290.618C1755.48 290.421 1757.46 290.329 1758.95 289.789C1761.4 288.904 1761.92 287.616 1763.13 285.499Z"/>
	<path fill="#FF7D00" transform="scale(0.895528 0.895528)" d="M1547.95 229.759C1547.53 228.382 1545.72 227.535 1544.53 226.706L1544.94 225.079C1554.03 214.902 1568.1 206.477 1580.75 201.547C1604.67 192.221 1632.17 195.83 1655.11 206.65C1662.04 209.921 1668.38 214.607 1675.4 217.608C1675.58 217.683 1675.75 217.754 1675.93 217.828C1679.28 218.54 1683.57 221.45 1685.44 224.355C1685.61 224.622 1685.77 224.898 1685.93 225.17C1680.44 227.697 1672.84 226.548 1666.78 229.247C1651.18 236.193 1647.24 252.168 1637.82 261.958C1621.13 247.167 1570.64 231.469 1547.95 229.759Z"/>
	<path fill="white" transform="scale(0.895528 0.895528)" d="M1682.62 495.497C1683.74 495.339 1684.91 495.245 1686.01 495.542C1695.45 498.082 1704.89 502.659 1714.22 505.853C1725 509.547 1736.26 512.144 1746.89 516.199C1750.72 520.24 1752.95 525.118 1757.31 528.994C1759.63 531.056 1762.44 531.964 1764.73 533.869C1764.95 534.06 1765.18 534.257 1765.4 534.452C1766.38 540.057 1750.7 654.012 1747.76 661.589L1746.6 661.501C1744.82 653.741 1739.81 645.897 1735.51 639.302C1726.5 625.487 1671.38 552.844 1661.41 546.545L1681.98 547.646C1684.09 542.193 1684.31 501.448 1682.62 495.497Z"/>
	<path fill="#FF7D00" transform="scale(0.895528 0.895528)" d="M1527.65 238.185C1545.87 238.963 1622.04 258.467 1634.65 270.475C1634.8 270.612 1634.92 270.767 1635.05 270.914C1635.2 276.089 1614.2 312.49 1609.69 317.261C1600.93 326.546 1588.44 329.851 1576.03 330.061C1548.64 330.524 1521.65 319.726 1499.53 304.155C1500.08 297.519 1491.73 292.368 1492.55 284.48C1494.11 269.461 1526.15 247.075 1527.65 238.185Z"/>
	<path fill="#B34B00" transform="scale(0.895528 0.895528)" d="M1534.92 290.499C1538.35 290.04 1541.87 290.077 1545.07 291.539Q1545.58 291.769 1546.07 292.051Q1546.55 292.333 1547.01 292.665Q1547.46 292.996 1547.88 293.373Q1548.29 293.749 1548.67 294.167Q1549.04 294.585 1549.37 295.04Q1549.7 295.495 1549.98 295.981Q1550.26 296.468 1550.49 296.981Q1550.72 297.494 1550.89 298.028C1551.8 300.904 1551.36 303.761 1549.87 306.342C1547.51 310.418 1543.52 311.884 1539.18 312.89C1537.22 313.112 1534.88 313.187 1532.95 312.714C1530.1 312.017 1527.4 310.382 1526.05 307.694C1524.78 305.176 1524.81 302.235 1525.64 299.589C1527.1 294.925 1530.83 292.678 1534.92 290.499Z"/>
	<path fill="white" transform="scale(0.895528 0.895528)" d="M1661.3 341.499C1669.25 340.4 1678.12 340.866 1685.25 344.932C1692.16 348.869 1696.81 355.331 1698.79 362.997C1701.25 372.513 1698.05 454.274 1694.34 460.535C1716.24 468.232 1736.84 489.738 1759.63 494.012C1768.2 495.62 1777.68 489.643 1786.15 490.934C1788.58 491.303 1790.31 492.236 1791.79 494.184C1794.35 497.542 1794.33 502.484 1793.68 506.471C1792.68 512.689 1789.95 519.39 1784.64 523.132Q1784.03 523.568 1783.38 523.94Q1782.73 524.312 1782.05 524.617Q1781.37 524.922 1780.66 525.157Q1779.95 525.393 1779.22 525.555Q1778.49 525.718 1777.75 525.806Q1777 525.895 1776.25 525.908Q1775.51 525.922 1774.76 525.86Q1774.02 525.798 1773.28 525.662C1759.94 523.322 1763.18 516.233 1757.79 508.483C1739.52 502.459 1721.27 496.803 1703.47 489.427C1691.2 484.34 1679.47 477.778 1667.03 473.145C1667.07 472.987 1667.13 472.832 1667.15 472.67C1667.6 468.619 1662.83 457.976 1660.1 454.963C1662.25 447.035 1646.04 410.06 1646.85 395.51C1647.48 384.212 1661.08 368.102 1659.87 359.845C1655.86 369.265 1647.37 376.675 1643.32 388.541C1638.84 401.665 1639.5 416.681 1642.34 430.088C1643.21 434.188 1645.66 439.428 1644.75 443.55C1636.29 452.743 1592.08 468.634 1578.34 471.454C1584.77 465.392 1590.69 445.882 1594.59 436.955C1604.61 413.999 1631.58 363.381 1649.2 348.005C1652.65 344.992 1657.12 343.268 1661.3 341.499Z"/>
	<path fill="#FF7D00" transform="scale(0.895528 0.895528)" d="M1574.5 510.499C1575.75 510.38 1576.99 510.371 1578.17 510.825C1587 514.215 1596.38 521.022 1604.93 525.527C1617.67 532.244 1631.03 537.544 1644.45 542.713C1645.22 543.201 1645.82 543.585 1646.45 544.252C1653.3 551.526 1658.36 561.447 1664.56 569.404C1684.89 595.48 1715.02 625.599 1729.32 654.552C1736.96 670.03 1740.28 687.117 1745.49 703.464C1747.86 710.905 1753.79 721.14 1753.2 728.711C1750.51 731.651 1743.94 733.088 1740.18 734.006C1736.9 737.037 1727.24 737.735 1722.81 738.446C1721.96 731.749 1713.6 721.405 1710.06 715.371C1705.41 707.459 1700.94 699.377 1697.29 690.949C1694.88 685.385 1693.51 679.09 1690.18 674.004C1687.11 667.297 1595.36 609.167 1576.85 574.042C1570.16 561.34 1563.17 530.652 1567.53 517.52C1568.88 513.443 1570.81 512.295 1574.5 510.499Z"/>
	<path fill="#FF7D00" transform="scale(0.895528 0.895528)" d="M1480.89 303.845C1481.09 303.95 1481.29 304.053 1481.49 304.161C1487.76 307.586 1491.74 314.377 1497.62 318.405C1521.7 334.899 1560.39 349.243 1589.77 341.278Q1591.42 340.827 1593.05 340.293C1592.5 345.12 1572.3 371.051 1568.5 377.383Q1553.78 402.143 1542.31 428.561C1538.58 437.075 1534.73 445.607 1531.71 454.402C1528.67 463.259 1526.36 472.606 1522.68 481.208C1521.77 483.315 1520.67 485.487 1518.9 486.998C1516.3 489.207 1512.1 490.56 1508.84 491.394C1476.96 484.495 1437.1 470.759 1418.46 441.84Q1417.22 439.909 1416.04 437.939L1418.71 436.577C1423.86 429.535 1429.89 406.122 1433.71 396.577Q1444.49 369.745 1458.03 344.192C1461.57 337.568 1480.5 308.003 1480.89 303.845Z"/>
	<path fill="white" transform="scale(0.895528 0.895528)" d="M1634.64 650.69C1640.99 652.672 1672.9 675.623 1678 681.044C1683.02 686.337 1686.65 701.311 1690.33 708.541C1698.02 723.651 1710.17 737.265 1716.88 752.6C1719.96 752.702 1723.19 752.335 1726.28 752.176C1729.73 755.231 1734.7 759.684 1735.68 764.329C1735.78 764.601 1735.9 764.869 1735.99 765.145C1737.42 769.239 1732.87 795.98 1730.67 800.833C1725.09 803.35 1560.35 802.253 1542.74 802.227C1541.07 799.504 1538.55 797.129 1536.79 794.384C1532.43 787.593 1529.31 777.522 1523.39 772.267C1532.34 766.347 1544.85 752.257 1555.18 744.545C1568.39 734.686 1607.27 711.708 1615.38 701.186C1620.92 694.01 1635.66 659.581 1634.64 650.69Z"/>
</svg>
